<svg width="160" height="100" viewBox="0 14.5 160 100" fill="none" xmlns="http://www.w3.org/2000/svg">
<path d="M87.0402 41.04C89.5142 41.0401 91.5194 43.0495 91.5197 45.5283C91.5197 48.0073 89.5143 50.0175 87.0402 50.0176H128C130.474 50.0176 132.479 52.027 132.48 54.5059C132.48 56.9849 130.474 58.9951 128 58.9951H142.08C144.554 58.9952 146.559 61.0046 146.56 63.4834C146.56 65.9624 144.554 67.9725 142.08 67.9727H129.92C127.446 67.9727 125.44 69.982 125.44 72.4609C125.44 74.94 127.446 76.9502 129.92 76.9502H133.76C136.234 76.9502 138.24 78.9596 138.24 81.4385C138.24 83.9175 136.234 85.9277 133.76 85.9277H100.48C100.15 85.9277 99.8288 85.8918 99.5197 85.8242C99.2105 85.8918 98.8891 85.9277 98.5597 85.9277H40.3204C37.8462 85.9277 35.84 83.9175 35.84 81.4385C35.8401 78.9596 37.8463 76.9502 40.3204 76.9502H15.3605C12.8862 76.9502 10.88 74.94 10.88 72.4609C10.8802 69.982 12.8864 67.9727 15.3605 67.9727H40.9601C43.4343 67.9726 45.4396 65.9624 45.4396 63.4834C45.4394 61.0045 43.4342 58.9952 40.9601 58.9951H24.9601C22.4858 58.9951 20.4796 56.9849 20.4796 54.5059C20.4798 52.027 22.486 50.0176 24.9601 50.0176H50.5597C48.0856 50.0174 46.0802 48.0073 46.0802 45.5283C46.0805 43.0496 48.0858 41.0402 50.5597 41.04H87.0402ZM144.64 76.9502C147.114 76.9502 149.12 78.9596 149.12 81.4385C149.12 83.9175 147.114 85.9277 144.64 85.9277C142.166 85.9276 140.16 83.9175 140.16 81.4385C140.16 78.9596 142.166 76.9503 144.64 76.9502Z" fill="var(--empty-box-fill-primary, rgb(var(--semantic-2)))"/>
<path fill-rule="evenodd" clip-rule="evenodd" d="M72.3958 72.0166C72.3458 72.3714 72.3199 72.7339 72.3199 73.1025C72.3199 77.3523 75.7584 80.7975 79.9999 80.7975C84.2415 80.7975 87.6799 77.3523 87.6799 73.1025C87.6799 72.7339 87.6541 72.3714 87.6041 72.0166H106.24V89.1337C106.24 90.1962 105.38 91.0575 104.32 91.0575H55.6799C54.6196 91.0575 53.7599 90.1962 53.7599 89.1337V72.0166H72.3958Z" fill="var(--empty-box-fill-primary, rgb(var(--semantic-2)))"/>
<path fill-rule="evenodd" clip-rule="evenodd" d="M88.3199 71.8202C88.3199 76.4241 84.595 80.1564 79.9999 80.1564C75.4049 80.1564 71.6799 76.4241 71.6799 71.8202C71.6799 71.671 71.6839 71.5228 71.6916 71.3755H53.7599L59.8786 53.2488C60.1424 52.4674 60.8741 51.9414 61.6974 51.9414H98.3025C99.1258 51.9414 99.8575 52.4674 100.121 53.2488L106.24 71.3755H88.3083C88.316 71.5228 88.3199 71.671 88.3199 71.8202Z" fill="var(--empty-box-fill-primary, rgb(var(--semantic-2)))"/>
<path fill-rule="evenodd" clip-rule="evenodd" d="M87.1025 72.432C87.1025 75.9896 83.9226 79.5149 80.0001 79.5149C76.0775 79.5149 72.8976 75.9896 72.8976 72.432C72.8976 72.3167 72.9009 71.5609 72.9075 71.4472H59.5201L64.7433 58.7227C64.9685 58.1188 65.5931 57.7124 66.2959 57.7124H93.7042C94.407 57.7124 95.0316 58.1188 95.2568 58.7227L100.48 71.4472H87.0926C87.0992 71.5609 87.1025 72.3167 87.1025 72.432Z" fill="var(--empty-box-fill-secondary, rgb(var(--semantic-6)))"/>
<path fill-rule="evenodd" clip-rule="evenodd" d="M54.56 71.5071V88.4924C54.56 89.1121 55.0614 89.6146 55.68 89.6146H104.32C104.939 89.6146 105.44 89.1121 105.44 88.4924V71.5071L99.3635 53.5053C99.2096 53.0495 98.7828 52.7427 98.3025 52.7427H61.6975C61.2172 52.7427 60.7904 53.0495 60.6365 53.5053L54.56 71.5071Z" stroke="var(--empty-box-fill-secondary, rgb(var(--semantic-6)))" stroke-width="2.5"/>
<path d="M62.7199 71.1787C65.2393 71.1787 67.9583 71.1787 70.8767 71.1787C72.0775 71.1787 72.0775 72.0242 72.0775 72.4612C72.0775 76.711 75.5951 80.1562 79.9342 80.1562C84.2733 80.1562 87.7909 76.711 87.7909 72.4612C87.7909 72.0242 87.7909 71.1787 88.9917 71.1787H104.96M57.9671 71.1787H59.5199H57.9671Z" stroke="var(--empty-box-fill-secondary, rgb(var(--semantic-6)))" stroke-width="2.5" stroke-linecap="round" stroke-linejoin="round"/>
<path d="M96.0637 37.3866L88.9599 45.3721M79.4237 34.6274V45.3721V34.6274ZM62.7199 37.3866L69.8237 45.3721L62.7199 37.3866Z" stroke="var(--empty-box-fill-secondary, rgb(var(--semantic-6)))" stroke-width="2.5" stroke-linecap="round" stroke-linejoin="round"/>
</svg>
