<svg xmlns="http://www.w3.org/2000/svg" width="24" height="24" viewBox="0 0 24 24" fill="none">
  <path d="M13.9615 18.8078C14.2063 18.8078 14.415 18.7215 14.5875 18.549C14.76 18.3765 14.8462 18.1678 14.8462 17.923C14.8462 17.6782 14.76 17.4695 14.5875 17.297C14.415 17.1247 14.2063 17.0385 13.9615 17.0385C13.7167 17.0385 13.508 17.1247 13.3355 17.297C13.1632 17.4695 13.077 17.6782 13.077 17.923C13.077 18.1678 13.1632 18.3765 13.3355 18.549C13.508 18.7215 13.7167 18.8078 13.9615 18.8078ZM16.923 18.8078C17.1678 18.8078 17.3765 18.7215 17.549 18.549C17.7215 18.3765 17.8077 18.1678 17.8077 17.923C17.8077 17.6782 17.7215 17.4695 17.549 17.297C17.3765 17.1247 17.1678 17.0385 16.923 17.0385C16.6782 17.0385 16.4695 17.1247 16.297 17.297C16.1247 17.4695 16.0385 17.6782 16.0385 17.923C16.0385 18.1678 16.1247 18.3765 16.297 18.549C16.4695 18.7215 16.6782 18.8078 16.923 18.8078ZM3.5 13.25V4.30775C3.5 3.80258 3.675 3.375 4.025 3.025C4.375 2.675 4.80258 2.5 5.30775 2.5H18.6923C19.1974 2.5 19.625 2.675 19.975 3.025C20.325 3.375 20.5 3.80258 20.5 4.30775V13.25H19V4.30775C19 4.23075 18.9679 4.16025 18.9038 4.09625C18.8398 4.03208 18.7692 4 18.6923 4H5.30775C5.23075 4 5.16025 4.03208 5.09625 4.09625C5.03208 4.16025 5 4.23075 5 4.30775V13.25H3.5ZM5 14.75V19.6923C5 19.7693 5.03208 19.8398 5.09625 19.9038C5.16025 19.9679 5.23075 20 5.30775 20H18.6923C18.7692 20 18.8398 19.9679 18.9038 19.9038C18.9679 19.8398 19 19.7693 19 19.6923V14.75H5ZM5.30775 21.5C4.80258 21.5 4.375 21.325 4.025 20.975C3.675 20.625 3.5 20.1974 3.5 19.6923V13.25H20.5V19.6923C20.5 20.1974 20.325 20.625 19.975 20.975C19.625 21.325 19.1974 21.5 18.6923 21.5H5.30775Z" fill="currentColor"/>
</svg>
