<svg width="440" height="99" viewBox="0 0 440 99" fill="none" xmlns="http://www.w3.org/2000/svg">
<path d="M1.56277 37.3316C0.28995 36.064 0.289949 34.0088 1.56277 32.7412L33.8278 0.608401L79.9207 0.608398L24.6092 55.6932C23.3364 56.9608 21.2727 56.9608 19.9999 55.6932L1.56277 37.3316Z" fill="url(#paint0_linear_33_490)"/>
<path d="M59.755 26.4294L79.9207 46.5124V92.4164L36.7086 49.3814L59.755 26.4294Z" fill="url(#paint1_linear_33_490)"/>
<path d="M419.357 78.9157C414.903 78.9157 410.992 77.9555 407.624 76.035C404.256 74.1145 401.622 71.4501 399.72 68.042C397.846 64.6338 396.909 60.7116 396.909 56.2756C396.909 51.4878 397.833 47.3358 399.68 43.8194C401.526 40.276 404.093 37.5305 407.38 35.5829C410.666 33.6354 414.468 32.6616 418.787 32.6616C423.35 32.6616 427.22 33.7301 430.398 35.8669C433.603 37.9768 435.98 40.9657 437.528 44.8338C439.076 48.7018 439.66 53.2596 439.28 58.5071H429.543V54.9366C429.515 50.176 428.673 46.7001 427.017 44.5092C425.36 42.3182 422.752 41.2227 419.194 41.2227C415.175 41.2227 412.187 42.467 410.231 44.9555C408.276 47.417 407.298 51.028 407.298 55.7887C407.298 60.2247 408.276 63.66 410.231 66.0944C412.187 68.5288 415.039 69.746 418.787 69.746C421.204 69.746 423.282 69.2186 425.02 68.1637C426.786 67.0817 428.144 65.5264 429.094 63.4977L438.791 66.419C437.107 70.3682 434.499 73.4383 430.968 75.6292C427.465 77.8202 423.594 78.9157 419.357 78.9157ZM404.202 58.5071V51.1227H434.472V58.5071H404.202Z" fill="white"/>
<path d="M367.64 98.3911C365.196 98.3911 362.846 98.0125 360.592 97.2551C358.365 96.4977 356.355 95.4022 354.562 93.9686C352.77 92.562 351.303 90.8579 350.162 88.8563L359.207 84.3932C360.049 85.9891 361.23 87.1657 362.751 87.9231C364.299 88.7075 365.943 89.0997 367.681 89.0997C369.718 89.0997 371.538 88.7346 373.14 88.0042C374.743 87.301 375.978 86.2461 376.848 84.8395C377.744 83.46 378.165 81.7288 378.111 79.6461V67.1899H379.333V33.8788H387.929V79.8083C387.929 80.9174 387.875 81.9723 387.766 82.9731C387.685 84.001 387.535 85.0018 387.318 85.9756C386.666 88.8157 385.417 91.142 383.57 92.9543C381.723 94.7936 379.428 96.1596 376.685 97.0522C373.969 97.9448 370.954 98.3911 367.64 98.3911ZM366.785 78.9157C362.738 78.9157 359.207 77.9014 356.192 75.8727C353.177 73.844 350.841 71.085 349.185 67.5956C347.528 64.1063 346.699 60.1706 346.699 55.7887C346.699 51.3526 347.528 47.4034 349.185 43.9411C350.869 40.4518 353.245 37.7063 356.314 35.7047C359.383 33.676 362.996 32.6616 367.151 32.6616C371.334 32.6616 374.838 33.676 377.662 35.7047C380.514 37.7063 382.674 40.4518 384.14 43.9411C385.607 47.4305 386.34 51.3797 386.34 55.7887C386.34 60.1436 385.607 64.0793 384.14 67.5956C382.674 71.085 380.487 73.844 377.581 75.8727C374.675 77.9014 371.076 78.9157 366.785 78.9157ZM368.292 70.1518C370.927 70.1518 373.045 69.5567 374.648 68.3665C376.277 67.1493 377.459 65.4588 378.192 63.2948C378.953 61.1309 379.333 58.6288 379.333 55.7887C379.333 52.9215 378.953 50.4194 378.192 48.2825C377.459 46.1186 376.304 44.4415 374.729 43.2514C373.154 42.0342 371.117 41.4256 368.618 41.4256C365.983 41.4256 363.811 42.0747 362.099 43.3731C360.388 44.6444 359.125 46.3756 358.311 48.5665C357.496 50.7305 357.088 53.1379 357.088 55.7887C357.088 58.4665 357.482 60.901 358.27 63.092C359.085 65.2559 360.32 66.9735 361.977 68.2448C363.634 69.5161 365.739 70.1518 368.292 70.1518Z" fill="white"/>
<path d="M318.19 77.6987V33.879H326.868V44.5499L325.809 43.1704C326.352 41.7097 327.072 40.3843 327.968 39.1942C328.892 37.9769 329.992 36.9761 331.268 36.1917C332.355 35.4614 333.55 34.8933 334.853 34.4876C336.184 34.0548 337.542 33.7978 338.927 33.7167C340.313 33.6085 341.657 33.6626 342.961 33.879V43.0081C341.657 42.6294 340.15 42.5077 338.439 42.6429C336.755 42.7782 335.234 43.2515 333.876 44.063C332.518 44.7933 331.404 45.7265 330.535 46.8626C329.693 47.9987 329.068 49.297 328.661 50.7577C328.253 52.1913 328.05 53.7466 328.05 55.4237V77.6987H318.19Z" fill="white"/>
<path d="M287.255 78.9157C282.855 78.9157 279.012 77.9284 275.725 75.9538C272.439 73.9792 269.886 71.2608 268.066 67.7985C266.273 64.3092 265.377 60.3059 265.377 55.7887C265.377 51.1903 266.301 47.16 268.148 43.6977C269.994 40.2354 272.561 37.5305 275.848 35.5829C279.134 33.6354 282.936 32.6616 287.255 32.6616C291.682 32.6616 295.539 33.6489 298.825 35.6235C302.112 37.5981 304.665 40.3301 306.485 43.8194C308.304 47.2817 309.214 51.2715 309.214 55.7887C309.214 60.3329 308.291 64.3497 306.444 67.8391C304.624 71.3014 302.071 74.0198 298.785 75.9944C295.498 77.942 291.655 78.9157 287.255 78.9157ZM287.255 69.746C291.166 69.746 294.072 68.4477 295.973 65.851C297.875 63.2542 298.825 59.9001 298.825 55.7887C298.825 51.542 297.861 48.1608 295.933 45.6452C294.004 43.1026 291.112 41.8313 287.255 41.8313C284.62 41.8313 282.448 42.4264 280.736 43.6165C279.053 44.7797 277.803 46.4161 276.988 48.526C276.173 50.6087 275.766 53.0297 275.766 55.7887C275.766 60.0354 276.73 63.4301 278.659 65.9727C280.614 68.4883 283.48 69.746 287.255 69.746Z" fill="white"/>
<path d="M226.365 77.6987V19.2725H261.687V29.0507H236.183V43.6167H256.798V53.3544H236.183V77.6987H226.365Z" fill="white"/>
<path d="M199.271 78.9157C193.839 78.9157 189.425 77.6985 186.03 75.2641C182.635 72.8297 180.571 69.4079 179.837 64.9989L189.86 63.4571C190.376 65.621 191.516 67.3251 193.282 68.5694C195.047 69.8137 197.274 70.4358 199.963 70.4358C202.326 70.4358 204.146 69.976 205.423 69.0563C206.726 68.1096 207.378 66.8247 207.378 65.2018C207.378 64.201 207.134 63.403 206.645 62.8079C206.183 62.1858 205.151 61.5907 203.549 61.0227C201.946 60.4547 199.488 59.7378 196.174 58.8723C192.481 57.8985 189.547 56.8571 187.374 55.7481C185.202 54.612 183.64 53.2731 182.689 51.7313C181.739 50.1895 181.263 48.3231 181.263 46.1321C181.263 43.4001 181.983 41.0198 183.423 38.9911C184.862 36.9624 186.872 35.4071 189.452 34.3251C192.032 33.2161 195.074 32.6616 198.578 32.6616C202 32.6616 205.029 33.1891 207.663 34.244C210.325 35.2989 212.471 36.8001 214.1 38.7477C215.73 40.6952 216.735 42.9809 217.115 45.6047L207.093 47.3899C206.849 45.5235 205.993 44.0493 204.526 42.9674C203.087 41.8854 201.158 41.2768 198.741 41.1415C196.432 41.0063 194.572 41.3579 193.16 42.1965C191.747 43.0079 191.041 44.1575 191.041 45.6452C191.041 46.4838 191.326 47.2006 191.897 47.7956C192.467 48.3907 193.608 48.9858 195.319 49.5809C197.057 50.176 199.637 50.9063 203.06 51.7719C206.563 52.6645 209.361 53.6924 211.452 54.8555C213.571 55.9915 215.092 57.3575 216.015 58.9534C216.966 60.5493 217.441 62.4833 217.441 64.7555C217.441 69.1645 215.825 72.6268 212.593 75.1424C209.388 77.6579 204.947 78.9157 199.271 78.9157Z" fill="white"/>
<path d="M161.71 77.6986V56.6002C161.71 55.2207 161.615 53.6924 161.425 52.0154C161.235 50.3383 160.786 48.7289 160.08 47.1871C159.401 45.6182 158.369 44.3334 156.984 43.3326C155.626 42.3317 153.779 41.8313 151.443 41.8313C150.194 41.8313 148.958 42.0342 147.736 42.4399C146.514 42.8457 145.4 43.549 144.395 44.5498C143.417 45.5236 142.63 46.876 142.032 48.6072C141.435 50.3113 141.136 52.5022 141.136 55.1801L135.31 52.7051C135.31 48.9723 136.03 45.5912 137.469 42.5617C138.936 39.5322 141.081 37.1248 143.906 35.3395C146.731 33.5272 150.207 32.6211 154.336 32.6211C157.595 32.6211 160.284 33.1621 162.402 34.244C164.521 35.326 166.205 36.7055 167.454 38.3826C168.704 40.0596 169.627 41.8449 170.225 43.7383C170.822 45.6318 171.202 47.4305 171.365 49.1346C171.556 50.8117 171.651 52.1777 171.651 53.2326V77.6986H161.71ZM131.195 77.6986V33.8789H139.954V47.4711H141.136V77.6986H131.195Z" fill="white"/>
<path d="M109.254 77.6987V19.2725H119.073V77.6987H109.254Z" fill="white"/>
<defs>
<linearGradient id="paint0_linear_33_490" x1="-0.114919" y1="1.99245" x2="121.628" y2="44.0617" gradientUnits="userSpaceOnUse">
<stop stop-color="white"/>
<stop offset="1" stop-color="white" stop-opacity="0.4"/>
</linearGradient>
<linearGradient id="paint1_linear_33_490" x1="129.043" y1="38.3399" x2="48.3766" y2="38.3399" gradientUnits="userSpaceOnUse">
<stop stop-color="white"/>
<stop offset="1" stop-color="white" stop-opacity="0.4"/>
</linearGradient>
</defs>
</svg>
