<svg width="24" height="24" viewBox="0 0 24 24" fill="none" xmlns="http://www.w3.org/2000/svg">
<path d="M11.8121 3.04199C11.8641 2.85054 12.1361 2.85051 12.1881 3.04199L13.8687 9.28613C13.9794 9.69726 14.3014 10.0182 14.7125 10.1289L20.9557 11.8105C21.1477 11.8623 21.1477 12.1348 20.9557 12.1865L14.7125 13.8672C14.3014 13.9779 13.9794 14.2998 13.8687 14.7109L12.1881 20.9541C12.1364 21.1461 11.8638 21.1461 11.8121 20.9541L10.1305 14.7109C10.0198 14.2998 9.69881 13.9779 9.28769 13.8672L3.04355 12.1865C2.85206 12.1346 2.8521 11.8625 3.04355 11.8105L9.28769 10.1289C9.69881 10.0182 10.0198 9.69726 10.1305 9.28613L11.8121 3.04199Z" stroke="white"/>
<path d="M19.5904 2.55907C19.648 2.34489 19.9519 2.34489 20.0096 2.55907L20.535 4.5103C20.5551 4.585 20.6134 4.64335 20.6881 4.66347L22.6394 5.18883C22.8535 5.2465 22.8535 5.55038 22.6394 5.60804L20.6881 6.13341C20.6134 6.15352 20.5551 6.21187 20.535 6.28658L20.0096 8.2378C19.9519 8.45198 19.648 8.45198 19.5904 8.2378L19.065 6.28658C19.0449 6.21187 18.9866 6.15352 18.9118 6.13341L16.9606 5.60804C16.7464 5.55038 16.7464 5.2465 16.9606 5.18883L18.9118 4.66347C18.9866 4.64335 19.0449 4.585 19.065 4.5103L19.5904 2.55907Z" fill="white"/>
</svg>
