<svg width="24" height="24" viewBox="0 0 24 24" fill="none" xmlns="http://www.w3.org/2000/svg">
<rect x="-2" y="-2" width="28" height="28" fill="#0a0a0a"/>
<path d="M17.3255 21.9996C17.2425 22.0435 17.2471 22.0612 17.3302 22.0192C17.3545 22.0088 17.3767 21.9939 17.3955 21.9753C17.3955 21.9604 17.3937 21.9623 17.3255 21.9996ZM17.4917 21.9119C17.4525 21.9427 17.4525 21.9445 17.5001 21.9203C17.5262 21.9072 17.5486 21.8923 17.5486 21.8876C17.5486 21.8699 17.5374 21.8745 17.4917 21.9119ZM17.6009 21.8456C17.5617 21.8764 17.5617 21.8783 17.6093 21.854C17.6354 21.8409 17.6578 21.826 17.6578 21.8213C17.6578 21.8036 17.6466 21.8083 17.6009 21.8456ZM17.7101 21.7803C17.6709 21.8111 17.6709 21.8129 17.7185 21.7887C17.7446 21.7756 17.767 21.7607 17.767 21.756C17.767 21.7383 17.7558 21.7429 17.7101 21.7803ZM17.8613 21.6823C17.7847 21.7308 17.7605 21.7635 17.8286 21.7261C17.8771 21.6981 17.9555 21.6384 17.9425 21.6365C17.9138 21.6488 17.8866 21.6642 17.8613 21.6823ZM11.1665 1.00333C11.1179 1.008 10.9649 1.02293 10.8267 1.03413C7.64593 1.32066 4.6658 3.03706 2.7786 5.6756C1.73528 7.1238 1.05713 8.80254 0.8018 10.569C0.7122 11.1841 0.7001 11.3661 0.7001 12.2005C0.7001 13.0349 0.7122 13.216 0.8018 13.832C1.41033 18.0376 4.40353 21.5712 8.4626 22.8807C9.18967 23.1149 9.95593 23.2745 10.8267 23.3707C11.1665 23.408 12.6327 23.408 12.9725 23.3707C14.4761 23.2045 15.751 22.8321 17.0073 22.1909C17.1995 22.092 17.2369 22.0659 17.2107 22.0444C16.5971 21.2336 15.9892 20.4185 15.387 19.5991L13.5959 17.1799L11.3522 13.8591C10.6062 12.7479 9.85296 11.6416 9.0926 10.5401C9.0842 10.5383 9.07487 12.0139 9.07113 13.8152C9.0646 16.9699 9.06273 17.0968 9.0226 17.1715C8.9845 17.2587 8.91625 17.3293 8.83033 17.3703C8.76033 17.4057 8.69873 17.4123 8.36833 17.4123H7.9894L7.8886 17.3488C7.82641 17.3096 7.77582 17.2545 7.74207 17.1892L7.69633 17.0903L7.701 12.7008L7.70753 8.30946L7.77567 8.22453C7.82144 8.17075 7.87644 8.12555 7.93807 8.09106C8.02767 8.0472 8.06313 8.04253 8.44207 8.04253C8.88913 8.04253 8.96286 8.06026 9.07953 8.1872C9.9878 9.53889 10.8885 10.8957 11.7815 12.2575C13.2357 14.462 15.2227 17.472 16.1999 18.9504L17.9733 21.6365L18.0629 21.5777C18.9162 21.0102 19.6899 20.3312 20.3635 19.5589C21.7747 17.944 22.6899 15.9561 22.9993 13.8339C23.0889 13.2188 23.1001 13.0368 23.1001 12.2024C23.1001 11.368 23.0889 11.1869 22.9993 10.5709C22.3907 6.36533 19.3975 2.83173 15.3385 1.52226C14.5799 1.28076 13.7987 1.11721 13.007 1.03413C12.797 1.01266 11.3494 0.988397 11.1683 1.00613L11.1665 1.00333ZM15.751 7.77746C15.8032 7.8037 15.8496 7.84007 15.8876 7.88446C15.9256 7.92885 15.9544 7.98037 15.9722 8.036C15.99 8.09293 15.9937 9.31 15.99 12.0531L15.9834 15.9899L15.289 14.9259L14.5927 13.8619V11.0003C14.5927 9.1504 14.6011 8.11066 14.6142 8.06026C14.63 8.0021 14.6573 7.94769 14.6945 7.90024C14.7317 7.85279 14.778 7.81327 14.8307 7.784C14.9203 7.73826 14.953 7.7336 15.2974 7.7336C15.6213 7.7336 15.6782 7.73826 15.751 7.77746Z" fill="#6EE7B7"/>
</svg>
