<svg width="24" height="24" viewBox="0 0 24 24" fill="none" xmlns="http://www.w3.org/2000/svg">
<rect x="-2" y="-2" width="28" height="28" fill="#0a0a0a"/>
<path d="M13.79 17.0515H18.594C18.907 17.0515 19.206 16.9415 19.477 16.7865C19.748 16.6314 20.027 16.4367 20.184 16.1681C20.34 15.8995 20.449 15.5948 20.449 15.2847C20.449 14.9746 20.34 14.67 20.184 14.4015L16.559 9.00645C16.402 8.73789 16.211 8.54314 15.941 8.38808C15.67 8.23308 15.282 8.12308 14.969 8.12308C14.656 8.12308 14.356 8.23308 14.086 8.38808C13.815 8.54314 13.624 8.73789 13.467 9.00645L13.79 9.92145L11.432 6.26789C11.276 5.99939 11.085 5.71645 10.814 5.56145C10.543 5.40639 10.243 5.38477 9.931 5.38477C9.618 5.38477 9.318 5.40639 9.047 5.56145C8.776 5.71645 8.497 5.99939 8.341 6.26789L3.126 14.4015C2.969 14.67 2.949 14.9746 2.949 15.2847C2.949 15.5948 2.969 15.8995 3.126 16.1681C3.282 16.4366 3.561 16.6314 3.832 16.7865C4.103 16.9415 4.403 17.0515 4.716 17.0515H8.899C10.349 17.0515 11.132 16.9524 11.376 15.8715L12.379 13.6598L13.969 10.9215L16.827 15.2248H12.379L13.79 17.0515ZM8.811 15.2248H5.482L9.931 8.09477L11.199 10.6598L10.034 12.4338C9.208 13.784 8.267 15.2248 8.811 15.2248Z" fill="#6EE7B7"/>
</svg>
