<svg width="24" height="24" viewBox="0 0 24 24" fill="none" xmlns="http://www.w3.org/2000/svg">
<rect x="-2" y="-2" width="28" height="28" fill="#0a0a0a"/>
<path d="M14.1431 10.3804C14.1431 9.23289 13.1837 8.30249 12 8.30249C10.8165 8.30249 9.85687 9.23289 9.85687 10.3804C9.85687 11.5281 10.8165 12.4584 12 12.4584C13.1837 12.4584 14.1431 11.5281 14.1431 10.3804Z" fill="#6EE7B7"/>
<path fill-rule="evenodd" clip-rule="evenodd" d="M18.9603 6.52296C19.4129 4.73982 19.9818 1.43318 17.9763 0.312127C15.9802 -0.804041 13.3827 1.33474 12.0111 2.61854C10.6435 1.34754 7.97304 -0.782105 5.9693 0.342511C3.97401 1.46242 4.58931 4.71424 5.05192 6.50856C3.19065 7.02112 0 8.12512 0 10.3807C0 12.6299 3.18733 13.831 5.03758 14.3431C4.57326 16.1474 3.98877 19.3527 5.98662 20.4702C7.99784 21.5946 10.66 19.5156 12.0443 18.2178C13.4247 19.5091 15.9973 21.6017 17.9938 20.4811C19.9965 19.357 19.4749 16.0947 19.0122 14.29C20.8058 13.7768 24 12.6018 24 10.3807C24 8.1468 20.7922 7.03384 18.9603 6.52296ZM18.733 13.3336C18.4292 12.4013 18.0192 11.4098 17.5177 10.3857C17.9964 9.38568 18.3905 8.40704 18.6858 7.48072C20.0287 7.85824 22.9748 8.72104 22.9748 10.3807C22.9748 12.056 20.1477 12.927 18.733 13.3336ZM17.48 19.6208C15.9904 20.4568 13.7777 18.4557 12.7582 17.5047C13.4346 16.7875 14.1104 15.9538 14.77 15.0279C15.9303 14.9282 17.0264 14.765 18.0205 14.5422C18.3461 15.8187 18.9762 18.781 17.48 19.6208ZM6.4989 19.6089C5.00914 18.776 5.69006 15.9157 6.03166 14.5866C7.01467 14.7975 8.10288 14.9492 9.26592 15.0406C9.92984 15.9466 10.6253 16.7793 11.3261 17.5086C10.4602 18.3206 7.9956 20.4456 6.4989 19.6089ZM1.02519 10.3807C1.02519 8.6992 3.95366 7.84264 5.32723 7.46608C5.62761 8.4132 6.02156 9.40352 6.49698 10.405C6.0154 11.4213 5.61582 12.4273 5.31268 13.3856C4.00295 13.0221 1.02519 12.0633 1.02519 10.3807ZM6.48296 1.20283C7.9788 0.363327 10.2998 2.40786 11.2927 3.3281C10.5955 4.05403 9.90648 4.88048 9.24824 5.7812C8.11952 5.88264 7.039 6.04552 6.04567 6.26376C5.673 4.81657 4.98874 2.04143 6.48296 1.20283ZM15.5034 6.86168C16.2692 6.95536 17.0029 7.08 17.6918 7.23248C17.485 7.8752 17.2272 8.54728 16.9236 9.23624C16.4835 8.42664 16.0111 7.63328 15.5034 6.86168ZM12.0114 4.03848C12.4843 4.53518 12.9579 5.08984 13.4238 5.6916C12.4788 5.64824 11.5322 5.64808 10.5872 5.69096C11.0535 5.09478 11.5312 4.54094 12.0114 4.03848ZM7.0852 9.23552C6.78663 8.54896 6.53118 7.87392 6.32258 7.222C7.00734 7.07344 7.7376 6.952 8.4984 6.85984C7.98928 7.62976 7.51768 8.4228 7.0852 9.23552ZM8.52024 13.9726C7.73432 13.8875 6.99301 13.7722 6.30845 13.6278C6.52035 12.9644 6.78142 12.2748 7.08637 11.5734C7.5248 12.3946 8.0036 13.1954 8.52024 13.9726ZM12.0398 16.7932C11.5539 16.2848 11.0692 15.7225 10.5958 15.1177C11.5462 15.1538 12.4985 15.1539 13.4488 15.1128C12.9814 15.7286 12.5095 16.2918 12.0398 16.7932ZM16.9334 11.5378C17.2542 12.2467 17.5246 12.9326 17.7394 13.5847C17.0434 13.7387 16.2922 13.8627 15.5006 13.9548C16.012 13.1686 16.4919 12.3629 16.9334 11.5378ZM14.1978 14.0753C12.7441 14.176 11.2813 14.1749 9.82704 14.0835C9.00072 12.9132 8.26512 11.6824 7.63016 10.4046C8.26208 9.12952 8.99232 7.90112 9.81472 6.73264C11.27 6.626 12.7342 6.62568 14.1895 6.73328C15.0049 7.90168 15.734 9.12688 16.3806 10.3905C15.7417 11.665 15.0076 12.8958 14.1978 14.0753ZM17.4642 1.17328C18.9605 2.01003 18.2945 4.98181 17.9676 6.27408C16.9719 6.05128 15.8906 5.88552 14.7586 5.78248C14.0991 4.87203 13.4158 4.04414 12.7299 3.32759C13.7356 2.38753 15.9825 0.344711 17.4642 1.17328Z" fill="#6EE7B7"/>
</svg>
