<svg width="24" height="24" viewBox="0 0 24 24" fill="none" xmlns="http://www.w3.org/2000/svg">
<rect x="-2" y="-2" width="28" height="28" fill="#0a0a0a"/>
<path fill-rule="evenodd" clip-rule="evenodd" d="M18.1327 6.67366C18.7462 7.61835 18.8096 8.64263 18.4961 9.41843C17.9177 8.87197 17.2247 8.48048 16.4975 8.28788C16.5061 8.12730 16.4657 7.96260 16.3715 7.81740C16.1346 7.45265 15.6469 7.34898 15.2822 7.58588L13.5224 8.72865C13.5219 8.72895 13.5214 8.72925 13.5209 8.72963L10.8791 10.4452C10.5143 10.6821 10.4107 11.1698 10.6475 11.5346C10.8844 11.8994 11.3722 12.003 11.7369 11.7662L14.3795 10.05C14.3792 10.0502 14.3797 10.0499 14.3795 10.05C15.3820 9.39968 16.9500 9.74918 17.9327 11.1854C18.9157 12.6221 18.5265 14.2428 17.5241 14.8938L12.2404 18.3251C11.238 18.9761 9.66935 18.6267 8.6864 17.1901C8.07281 16.2454 8.00952 15.2211 8.32306 14.4453C8.90139 14.9918 9.59444 15.3833 10.3216 15.5759C10.313 15.7365 10.3533 15.9012 10.4475 16.0464C10.6845 16.4111 11.1722 16.5148 11.5369 16.2779L16.4401 13.4186C16.8047 13.1817 16.9084 12.694 16.6716 12.3292C16.4347 11.9645 15.9469 11.8608 15.5822 12.0977L12.9402 13.8134C12.94 13.8135 12.9404 13.8133 12.9402 13.8134C11.9377 14.4642 10.3692 14.1149 9.38636 12.6783C8.40341 11.2417 8.79265 9.62093 9.79505 8.96994L15.0788 5.53871C16.0811 4.88773 17.6497 5.23703 18.1327 6.67366ZM19.5279 10.8058C20.5307 9.42090 20.4769 7.39157 19.4537 5.81585C18.1757 3.84808 15.6366 2.97377 13.7209 4.21781L8.43726 7.64904C6.67284 8.79488 6.33499 11.1549 7.29119 13.0580C6.28842 14.4428 6.34222 16.4722 7.3655 18.0479C8.64336 20.0157 11.1826 20.89 13.0982 19.646L18.3818 16.2147C20.1462 15.0689 20.4841 12.7089 19.5279 10.8058Z" fill="#6EE7B7"/>
</svg>
