<svg width="20" height="20" viewBox="0 0 20 20" fill="none" xmlns="http://www.w3.org/2000/svg">
<g clip-path="url(#clip0_526_4260)">
<mask id="mask0_526_4260" style="mask-type:alpha" maskUnits="userSpaceOnUse" x="0" y="0" width="20" height="20">
<path fill-rule="evenodd" clip-rule="evenodd" d="M14.1824 19.8634C14.4974 19.9861 14.8566 19.9783 15.1745 19.8253L19.2922 17.8439C19.7248 17.6357 20 17.1978 20 16.7174V3.28266C20 2.80226 19.7249 2.36436 19.2922 2.15616L15.1745 0.174751C14.7572 -0.0260259 14.2689 0.0231519 13.9027 0.28939C13.8504 0.327422 13.8006 0.369886 13.7538 0.416682L5.87102 7.6083L2.43744 5.00192C2.1178 4.7593 1.67073 4.77918 1.37387 5.04922L0.272606 6.05098C-0.0905103 6.38128 -0.0909265 6.95254 0.271706 7.2834L3.24942 10L0.271706 12.7166C-0.0909265 13.0475 -0.0905103 13.6188 0.272606 13.9491L1.37387 14.9508C1.67073 15.2209 2.1178 15.2407 2.43744 14.9981L5.87102 12.3917L13.7538 19.5833C13.8785 19.7081 14.0249 19.8021 14.1824 19.8634ZM15.003 5.45978L9.02182 10L15.003 14.5402V5.45978Z" fill="white"/>
</mask>
<g mask="url(#mask0_526_4260)">
<path d="M19.2923 2.15926L15.1714 0.175127C14.6944 -0.0545362 14.1244 0.0423405 13.75 0.416684L0.259726 12.7167C-0.103128 13.0475 -0.102711 13.6188 0.260626 13.9491L1.36255 14.9508C1.6596 15.2209 2.10695 15.2407 2.42677 14.9981L18.6722 2.674C19.2172 2.26054 20 2.64926 20 3.33336V3.28552C20 2.80532 19.7249 2.36758 19.2923 2.15926Z" fill="#0065A9"/>
<g filter="url(#filter0_d_526_4260)">
<path d="M19.2923 17.8408L15.1714 19.8249C14.6944 20.0546 14.1244 19.9577 13.75 19.5834L0.259726 7.28342C-0.103128 6.95258 -0.102711 6.3813 0.260626 6.051L1.36255 5.04924C1.6596 4.7792 2.10695 4.75932 2.42677 5.00194L18.6722 17.3261C19.2172 17.7395 20 17.3508 20 16.6667V16.7146C20 17.1947 19.7249 17.6325 19.2923 17.8408Z" fill="#007ACC"/>
</g>
<g filter="url(#filter1_d_526_4260)">
<path d="M15.1716 19.8253C14.6944 20.0548 14.1244 19.9577 13.75 19.5833C14.2113 20.0446 15 19.7179 15 19.0656V0.934451C15 0.282103 14.2113 -0.0445967 13.75 0.416683C14.1244 0.0423049 14.6944 -0.0547087 15.1716 0.174751L19.2917 2.15616C19.7247 2.36436 20 2.80226 20 3.28266V16.7174C20 17.1978 19.7247 17.6357 19.2917 17.8439L15.1716 19.8253Z" fill="#1F9CF0"/>
</g>
<g style="mix-blend-mode:overlay" opacity="0.25">
<path fill-rule="evenodd" clip-rule="evenodd" d="M14.1702 19.8635C14.4852 19.9862 14.8444 19.9783 15.1623 19.8254L19.28 17.844C19.7127 17.6358 19.9879 17.1979 19.9879 16.7175V3.28273C19.9879 2.80231 19.7127 2.36441 19.28 2.15621L15.1623 0.174812C14.7451 -0.0259648 14.2568 0.023213 13.8905 0.289449C13.8382 0.327483 13.7884 0.369947 13.7416 0.416743L5.85887 7.60835L2.42529 5.00199C2.10567 4.75935 1.65858 4.77925 1.36172 5.04927L0.26046 6.05103C-0.102656 6.38135 -0.103073 6.95261 0.25956 7.28345L3.23727 10.0001L0.25956 12.7167C-0.103073 13.0476 -0.102656 13.6188 0.26046 13.9491L1.36172 14.9509C1.65858 15.2209 2.10567 15.2408 2.42529 14.9982L5.85887 12.3918L13.7416 19.5834C13.8663 19.7082 14.0128 19.8022 14.1702 19.8635ZM14.9909 5.45985L9.00967 10.0001L14.9909 14.5403V5.45985Z" fill="url(#paint0_linear_526_4260)"/>
</g>
</g>
</g>
<defs>
<filter id="filter0_d_526_4260" x="-8.34549" y="-3.50082" width="36.6788" height="31.7825" filterUnits="userSpaceOnUse" color-interpolation-filters="sRGB">
<feFlood flood-opacity="0" result="BackgroundImageFix"/>
<feColorMatrix in="SourceAlpha" type="matrix" values="0 0 0 0 0 0 0 0 0 0 0 0 0 0 0 0 0 0 127 0" result="hardAlpha"/>
<feOffset/>
<feGaussianBlur stdDeviation="4.16667"/>
<feColorMatrix type="matrix" values="0 0 0 0 0 0 0 0 0 0 0 0 0 0 0 0 0 0 0.25 0"/>
<feBlend mode="overlay" in2="BackgroundImageFix" result="effect1_dropShadow_526_4260"/>
<feBlend mode="normal" in="SourceGraphic" in2="effect1_dropShadow_526_4260" result="shape"/>
</filter>
<filter id="filter1_d_526_4260" x="5.41666" y="-8.28176" width="22.9167" height="36.5636" filterUnits="userSpaceOnUse" color-interpolation-filters="sRGB">
<feFlood flood-opacity="0" result="BackgroundImageFix"/>
<feColorMatrix in="SourceAlpha" type="matrix" values="0 0 0 0 0 0 0 0 0 0 0 0 0 0 0 0 0 0 127 0" result="hardAlpha"/>
<feOffset/>
<feGaussianBlur stdDeviation="4.16667"/>
<feColorMatrix type="matrix" values="0 0 0 0 0 0 0 0 0 0 0 0 0 0 0 0 0 0 0.25 0"/>
<feBlend mode="overlay" in2="BackgroundImageFix" result="effect1_dropShadow_526_4260"/>
<feBlend mode="normal" in="SourceGraphic" in2="effect1_dropShadow_526_4260" result="shape"/>
</filter>
<linearGradient id="paint0_linear_526_4260" x1="9.98785" y1="0.0516356" x2="9.98785" y2="19.9485" gradientUnits="userSpaceOnUse">
<stop stop-color="white"/>
<stop offset="1" stop-color="white" stop-opacity="0"/>
</linearGradient>
<clipPath id="clip0_526_4260">
<rect width="20" height="20" fill="white"/>
</clipPath>
</defs>
</svg>
