<svg version="1.1" id="Layer_1" xmlns="http://www.w3.org/2000/svg" xmlns:xlink="http://www.w3.org/1999/xlink" x="0px" y="0px"
	 width="100%" viewBox="0 0 960 956" xml:space="preserve">
<path fill="#4D6BFE" opacity="1.000000" stroke="none" 
	d="
M260.763000,698.302734 
	C248.042023,688.617737 234.923004,679.932068 223.344925,669.531067 
	C210.352493,657.859497 197.717758,645.464905 186.838806,631.856812 
	C175.983704,618.278564 167.133331,603.026794 158.111664,588.081604 
	C153.126511,579.823303 148.799271,570.968445 145.595428,561.881897 
	C141.040009,548.961975 137.811005,535.575623 133.978714,522.399231 
	C130.265167,509.631104 129.133118,496.474701 127.987022,483.315063 
	C127.360497,476.121185 125.998192,468.917450 126.165337,461.746063 
	C126.405998,451.420593 127.810097,441.125977 128.583099,430.808136 
	C129.424179,419.582031 131.424606,408.565369 135.027374,397.925507 
	C138.857239,386.614990 142.649094,375.238220 147.450821,364.327484 
	C151.146591,355.929810 156.101288,348.034271 160.988449,340.223450 
	C171.395447,323.590668 184.015610,308.752411 198.749008,295.779419 
	C219.091171,277.867828 242.534225,265.379028 268.588593,258.417511 
	C281.235596,255.038361 294.459961,253.273193 307.539581,252.204163 
	C322.559174,250.976547 337.722809,250.781021 352.795166,251.191483 
	C362.523712,251.456436 372.182526,254.422607 381.907166,254.641327 
	C388.356689,254.786392 395.239410,253.132721 401.281982,250.687347 
	C420.630493,242.857132 440.231842,235.768661 460.808533,232.334641 
	C473.533600,230.210968 486.629211,229.902695 499.275208,234.022324 
	C501.057251,234.602859 503.040161,235.468246 504.212372,236.822845 
	C506.341187,239.282928 507.049561,241.586441 503.004852,243.705307 
	C491.792664,249.578903 483.012054,257.615784 479.625458,270.610840 
	C478.109283,276.428680 479.826965,281.366669 482.160919,286.070038 
	C485.300201,292.396271 490.376129,297.024994 496.329376,301.173218 
	C507.368896,308.865570 518.017395,317.198486 528.263367,325.928192 
	C538.619934,334.752167 548.486328,344.181610 558.206238,353.714111 
	C567.314758,362.647064 575.943359,372.068939 584.796021,381.263245 
	C598.013367,394.990692 613.406067,405.815094 630.038086,414.944855 
	C633.273315,416.720825 636.712646,418.150818 640.134033,419.554901 
	C643.775085,421.049194 647.566284,418.555817 648.931396,413.999420 
	C651.158142,406.566742 653.026794,398.994812 655.790222,391.765961 
	C657.632996,386.945374 656.109619,383.956787 652.605347,381.169250 
	C647.619202,377.203033 642.361633,373.534882 637.678406,369.239594 
	C626.201599,358.713348 615.950317,347.181335 609.959595,332.474731 
	C608.018860,327.710236 605.249023,323.139709 604.178040,318.194702 
	C601.979919,308.044556 600.981079,297.639099 598.921082,287.453491 
	C596.401428,274.995270 599.592896,262.948975 601.224060,250.866776 
	C602.065002,244.637558 605.366516,238.732956 607.621399,232.706055 
	C608.468201,230.442825 609.270142,228.112091 610.496460,226.052658 
	C612.766663,222.240112 615.095825,218.882629 620.611450,218.820358 
	C626.003174,218.759491 627.819458,221.988007 629.366028,225.837677 
	C631.104736,230.165787 632.828613,234.561691 633.900696,239.084167 
	C637.076477,252.480591 646.257446,260.309967 657.955322,265.990784 
	C668.809570,271.261932 680.433655,275.609589 688.835388,284.533173 
	C695.781067,291.910248 701.255493,300.617218 703.043396,311.041962 
	C703.254944,312.275879 703.920471,313.431946 704.375488,314.624084 
	C705.383728,314.092468 706.590393,313.763214 707.370300,312.998627 
	C717.891357,302.683777 730.296509,295.790741 744.774658,293.104431 
	C750.234314,292.091461 755.935181,291.945038 761.511108,292.070312 
	C781.194275,292.512543 797.424255,285.601624 810.182617,270.449951 
	C812.858032,267.272614 816.059143,264.284760 819.597229,262.186279 
	C821.574219,261.013733 825.048462,261.064606 827.308655,261.946533 
	C831.760925,263.683746 835.058105,267.295715 834.911560,272.337769 
	C834.712158,279.199402 834.083740,286.096649 832.983032,292.872009 
	C831.581970,301.496246 830.302795,310.271942 827.567810,318.516876 
	C823.480591,330.838379 817.848999,342.602081 809.691345,352.900391 
	C791.423401,375.962097 767.366882,389.589264 738.924194,395.897308 
	C735.584045,396.638092 732.089417,396.727417 728.656799,396.995239 
	C723.171204,397.423248 720.942261,399.558136 721.072510,405.037170 
	C721.205505,410.630920 722.241821,416.251221 721.888733,421.796600 
	C721.423523,429.104004 720.278625,436.404846 718.907043,443.609711 
	C716.481201,456.352509 714.262878,469.184570 710.848328,481.675995 
	C707.148804,495.209320 702.127197,508.378448 697.780029,521.738220 
	C691.872986,539.891846 682.746948,556.517395 672.706360,572.557861 
	C665.996765,583.276733 658.141907,593.344727 650.155579,603.181091 
	C641.109192,614.323059 631.343201,624.880737 620.821167,636.915039 
	C626.456116,639.465881 631.389771,641.887390 636.467529,643.955200 
	C644.669617,647.295288 653.025269,650.260864 661.205200,653.651855 
	C668.012329,656.473694 674.712708,659.569397 681.364136,662.745422 
	C688.454895,666.131104 690.560730,677.929443 685.534119,684.053223 
	C680.980835,689.600281 674.630737,691.565491 668.152161,692.912537 
	C652.883362,696.087341 637.347290,696.868408 621.837341,695.926514 
	C604.630005,694.881592 587.526489,692.843750 571.356812,686.048157 
	C569.589355,685.305298 566.361023,685.664978 564.935242,686.857910 
	C553.402405,696.506775 541.383850,705.558655 527.790710,711.921387 
	C513.100891,718.797546 498.172363,725.529236 482.723358,730.302307 
	C470.396057,734.111084 457.187012,735.363464 444.266907,736.874512 
	C430.711334,738.459900 417.013794,740.026123 403.414001,739.761841 
	C382.493744,739.355286 361.719818,737.302490 341.145569,732.345215 
	C319.888550,727.223511 299.975342,719.098572 280.456024,709.709839 
	C273.747589,706.483215 267.502014,702.294373 260.763000,698.302734 
M354.619019,454.942871 
	C342.341888,447.436707 330.444031,439.198578 317.699463,432.594452 
	C298.151886,422.465057 277.432007,415.063416 255.836700,410.482574 
	C245.648148,408.321350 235.367859,405.749237 225.043671,405.291687 
	C213.078873,404.761444 200.970566,405.888611 189.018707,407.172699 
	C180.268097,408.112854 172.855331,411.755005 174.018921,423.742859 
	C175.285980,436.796417 175.878662,449.989899 178.283112,462.838318 
	C180.834839,476.473663 184.756088,489.901703 188.821671,503.193207 
	C194.941971,523.202148 203.547485,542.272644 214.248489,560.195801 
	C221.455200,572.266418 229.710236,583.840759 238.579041,594.757507 
	C250.461151,609.383423 264.031372,622.510315 279.311096,633.669678 
	C288.433380,640.331970 297.381653,647.479858 307.294922,652.737427 
	C316.002686,657.355652 325.776428,660.298950 335.389313,662.782166 
	C345.208496,665.318726 355.140320,664.728699 364.322632,659.287659 
	C370.242004,655.780151 372.905060,650.934448 370.905334,645.918518 
	C369.954285,643.533081 368.981659,641.010559 367.401794,639.046448 
	C360.366425,630.299683 357.179718,620.153931 355.635986,609.245789 
	C354.669800,602.418640 359.592896,596.204834 365.977081,597.023315 
	C375.510925,598.245667 384.347961,601.723572 392.344543,606.895630 
	C405.898834,615.662231 419.312073,624.662292 432.537750,633.916931 
	C443.928070,641.887451 455.263855,649.988708 466.100403,658.684326 
	C480.124603,669.937805 496.178070,676.328064 513.613159,678.775269 
	C524.533264,680.307922 535.757141,679.778625 546.848022,679.929749 
	C550.046387,679.973267 553.256348,679.167297 556.865906,678.698120 
	C538.809753,664.660339 521.117065,651.439392 506.774414,634.366577 
	C499.551849,625.769104 491.385468,617.913269 484.662933,608.958557 
	C473.282990,593.799927 462.640625,578.083557 451.821747,562.508972 
	C444.607971,552.124146 437.945862,541.342468 430.446136,531.174072 
	C423.560669,521.838501 416.162506,512.840271 408.477264,504.146881 
	C400.953156,495.635712 393.162018,487.281494 384.793030,479.617401 
	C375.379150,470.996429 365.187744,463.224579 354.619019,454.942871 
M497.627228,445.037598 
	C498.375824,445.662292 499.049103,446.687439 499.885590,446.844757 
	C504.342682,447.682953 508.826904,448.781860 513.326965,448.910980 
	C527.095032,449.306030 536.549988,462.392029 533.267273,474.729950 
	C531.298401,482.129639 531.084229,489.860016 534.091614,497.338104 
	C537.586365,506.028046 544.179993,512.237671 551.820007,516.598145 
	C557.778503,519.998840 565.073608,522.297180 571.881958,522.589539 
	C577.668091,522.838074 583.805054,519.997803 589.429138,517.662537 
	C596.584778,514.691406 598.607361,511.208374 595.941772,502.937317 
	C594.374023,498.072998 592.582581,493.076324 589.818909,488.838898 
	C580.064026,473.881866 570.450378,458.837067 557.121399,446.522339 
	C548.640076,438.686401 540.207092,431.153961 528.817444,427.981262 
	C519.021484,425.252502 509.302124,424.170746 500.070496,430.003632 
	C494.183350,433.723358 492.953735,439.530487 497.627228,445.037598 
M505.736450,479.993225 
	C507.700195,479.346405 510.039307,479.165222 511.545471,477.950867 
	C514.243469,475.775513 516.899231,473.249054 515.543274,468.999939 
	C514.294983,465.088135 511.938049,462.182922 507.769135,462.161804 
	C503.818481,462.141754 500.468170,463.488892 498.907104,468.098297 
	C496.742737,474.488892 500.875183,477.064850 505.736450,479.993225 
z"/>
</svg>