<svg xmlns="http://www.w3.org/2000/svg" width="24" height="24" viewBox="0 0 360 360">
<path d="M0 0 C8.45956306 4.64859349 17.03492587 9.05737965 25.62646484 13.45507812 C35.94064308 18.73615638 46.20021508 24.08574219 56.33837891 29.70019531 C60.93127679 32.23740806 65.54938733 34.70010478 70.22802734 37.07617188 C71.25460449 37.59977295 72.28118164 38.12337402 73.33886719 38.6628418 C75.28471386 39.6507789 77.23519308 40.62967567 79.19140625 41.59692383 C94.44801591 49.35763099 107.18372609 61.63167743 113.12646484 77.95507812 C116.37052962 89.18293866 117.71418243 99.67618473 117.64404297 111.35375977 C117.64948321 112.90977629 117.65661637 114.46578765 117.6652832 116.02178955 C117.68328039 120.18867483 117.67655226 124.3551573 117.66376686 128.52204823 C117.6535313 132.90781064 117.66305996 137.29354205 117.66931152 141.67930603 C117.67655065 149.02967437 117.66709186 156.37988092 117.64794922 163.73022461 C117.62611449 172.21191498 117.63329451 180.69322163 117.65525484 189.17490298 C117.67342881 196.48914394 117.67595961 203.80326975 117.66550016 211.11752599 C117.65928555 215.4726465 117.65837483 219.82758668 117.67164612 224.18269539 C117.68323589 228.26977101 117.67512247 232.35635219 117.65206909 236.44337463 C117.64680176 237.93808612 117.64826182 239.43283958 117.65711975 240.9275341 C117.70487235 249.80634667 117.67385394 257.18676325 111.19677734 263.97851562 C105.01838896 268.27113085 99.84578784 270.81278068 92.12646484 269.95507812 C86.24835492 268.12378936 80.6307852 265.70302465 75.09130859 263.02929688 C74.08487305 262.54505249 74.08487305 262.54505249 73.05810547 262.05102539 C71.74995505 261.41408682 70.44755 260.76518081 69.15185547 260.10327148 C65.80562878 258.43539968 65.80562878 258.43539968 62.14990234 258.02539062 C58.98189922 259.48095963 55.89766732 261.08162886 52.81396484 262.70507812 C31.66683754 273.53145894 7.879152 279.1734137 -15.56103516 273.27929688 C-29.96427589 268.53072845 -43.522752 260.21129735 -56.74584961 252.91015625 C-65.20658318 248.26292717 -73.78166356 243.85297279 -82.37353516 239.45507812 C-92.73494986 234.14969763 -103.04383106 228.77807901 -113.22827148 223.13745117 C-117.61487591 220.7121832 -122.02051548 218.3523125 -126.49462891 216.09179688 C-144.92851472 206.77069867 -159.53107706 196.26073344 -166.87353516 175.95507812 C-170.40841014 164.57563629 -171.48687341 154.13568281 -171.43994141 142.28710938 C-171.44520066 140.6339229 -171.45148534 138.98073941 -171.45872498 137.32756042 C-171.46904174 133.88611597 -171.46469852 130.44508715 -171.44995117 127.00366211 C-171.43622844 123.52149836 -171.44307898 120.04043199 -171.47045898 116.55834961 C-171.66845678 91.32396442 -170.57684979 68.85551921 -158.87353516 45.95507812 C-158.5707666 45.35646973 -158.26799805 44.75786133 -157.95605469 44.14111328 C-144.25891835 17.53719946 -120.61497607 -5.27853503 -91.90478516 -14.73242188 C-55.45872058 -26.15124702 -32.49958176 -17.93650795 0 0 Z M-26.49462891 75.57226562 C-41.50953513 91.36017014 -51.56466723 110.88445494 -56.87353516 131.95507812 C-57.04812256 132.64343246 -57.22270996 133.3317868 -57.40258789 134.04100037 C-59.03902872 141.26298246 -59.13145209 148.23786406 -59.06884766 155.61914062 C-59.06601776 156.89236176 -59.06318787 158.16558289 -59.06027222 159.47738647 C-59.05103501 162.82781835 -59.03313308 166.17796649 -59.01086426 169.52832031 C-58.99023766 172.96091285 -58.98123492 176.39353495 -58.97119141 179.82617188 C-58.94923605 186.53588423 -58.91583775 193.24546484 -58.87353516 199.95507812 C-33.50750049 190.25188654 -15.7042659 163.60234245 -4.87353516 139.95507812 C3.47576167 120.30197406 3.52446533 100.92569279 3.31396484 79.95507812 C3.298888 77.33008582 3.28520492 74.70508512 3.27294922 72.08007812 C3.24018836 65.70489233 3.19022781 59.33002534 3.12646484 52.95507812 C-6.49426422 52.95507812 -20.09393042 69.18110618 -26.49462891 75.57226562 Z " fill="#FEFEFE" transform="translate(206.87353515625,51.044921875)"/>
<path d="M0 0 C13.58332159 12.63939585 21.35936472 28.62481997 22.67781067 47.21190071 C22.8179475 51.32768651 22.84699493 55.42601099 22.82226562 59.54321289 C22.82770586 61.09922942 22.83483903 62.65524078 22.84350586 64.21124268 C22.86150305 68.37812796 22.85477492 72.54461042 22.84198952 76.71150136 C22.83175396 81.09726377 22.84128262 85.48299518 22.84753418 89.86875916 C22.85477331 97.21912749 22.84531452 104.56933405 22.82617188 111.91967773 C22.80433715 120.4013681 22.81151717 128.88267475 22.8334775 137.3643561 C22.85165147 144.67859706 22.85418227 151.99272287 22.84372282 159.30697912 C22.83750821 163.66209963 22.83659748 168.0170398 22.84986877 172.37214851 C22.86145854 176.45922413 22.85334512 180.54580532 22.83029175 184.63282776 C22.82502441 186.12753925 22.82648448 187.6222927 22.83534241 189.11698723 C22.88309501 197.99579979 22.85207659 205.37621637 16.375 212.16796875 C10.19661162 216.46058397 5.0240105 219.00223381 -2.6953125 218.14453125 C-8.57342243 216.31324248 -14.19099214 213.89247777 -19.73046875 211.21875 C-20.40142578 210.89592041 -21.07238281 210.57309082 -21.76367188 210.24047852 C-23.07182229 209.60353995 -24.37422735 208.95463393 -25.66992188 208.29272461 C-29.01614857 206.62485281 -29.01614857 206.62485281 -32.671875 206.21484375 C-35.83987812 207.67041275 -38.92411003 209.27108198 -42.0078125 210.89453125 C-63.01039551 221.64691186 -87.56497118 227.88521904 -110.8046875 221.2578125 C-113.49120846 220.31901443 -116.08930499 219.2864896 -118.6953125 218.14453125 C-119.82259766 217.66306641 -119.82259766 217.66306641 -120.97265625 217.171875 C-125.42618753 215.12341648 -128.35985945 212.80539436 -131.6953125 209.14453125 C-132.36304688 208.54125 -133.03078125 207.93796875 -133.71875 207.31640625 C-146.4627668 195.57277302 -152.27949535 180.00393496 -154.6953125 163.14453125 C-154.89640625 161.86707031 -155.0975 160.58960938 -155.3046875 159.2734375 C-155.64241733 155.53830638 -155.71660927 152.75835057 -154.6953125 149.14453125 C-151.18119184 145.5774339 -147.07344088 143.50518479 -142.6953125 141.14453125 C-117.17173915 123.13239991 -99.71251874 95.06912469 -93.71525574 64.52392578 C-91.64212663 52.40094394 -92.11339648 39.90290772 -92.0078125 27.64453125 C-91.97614793 24.97131057 -91.94008514 22.29817127 -91.90429688 19.625 C-91.82007902 13.13161606 -91.75145039 6.63821553 -91.6953125 0.14453125 C-83.75330252 -4.01067896 -76.05029871 -7.80216897 -67.3828125 -10.23046875 C-66.56748047 -10.47667969 -65.75214844 -10.72289063 -64.91210938 -10.9765625 C-43.36343574 -17.25087797 -17.42754833 -15.00550887 0 0 Z " fill="#2ADB5C" transform="translate(301.6953125,102.85546875)"/>
</svg>
