<svg width="32" height="32" viewBox="40 110 300 200" fill="none" xmlns="http://www.w3.org/2000/svg">
<path fill="currentColor" opacity="1.000000" stroke="none" 
	d="
M278.249542,193.336487 
	C266.029114,199.498962 254.151184,205.512695 242.251251,211.482559 
	C239.507919,212.858795 237.379974,214.661438 235.778427,217.425064 
	C232.023560,223.904449 228.064560,230.279205 223.887787,236.494446 
	C221.893921,239.461441 221.691437,241.751205 223.475388,245.039429 
	C232.763275,262.158966 241.740402,279.447052 250.828857,296.674805 
	C254.158203,302.985779 253.248413,303.715302 246.121689,304.543213 
	C237.836960,305.505707 233.277695,302.110931 228.872070,295.383209 
	C217.382339,277.837433 205.090500,260.814148 192.983780,243.677719 
	C190.847733,240.654251 189.831375,237.631210 190.013687,233.938354 
	C190.358337,226.956863 190.356186,219.958954 190.606583,212.971756 
	C190.704269,210.246155 189.891174,208.267563 187.549103,206.631577 
	C178.677765,200.434723 169.875122,194.136597 161.143448,187.744293 
	C158.084503,185.504883 155.589035,186.791962 152.859253,188.256393 
	C140.686340,194.786575 128.475861,201.246704 116.287964,207.748978 
	C114.809937,208.537491 113.364433,209.332153 111.613022,209.301849 
	C92.480331,208.970627 73.346939,208.691238 54.240753,207.483139 
	C51.761501,207.326385 49.982880,206.753036 49.952358,203.866638 
	C49.922562,201.049271 51.872227,200.122116 54.115906,199.766617 
	C69.035378,197.402802 83.953087,195.018814 98.905312,192.878479 
	C101.836929,192.458847 104.248596,191.620209 106.555145,189.762650 
	C133.534027,168.035431 160.599518,146.415619 187.536987,124.637390 
	C190.306732,122.398132 192.627747,121.880966 196.091171,122.938362 
	C222.975388,131.146194 249.938904,139.093933 276.848053,147.220917 
	C279.941437,148.155151 281.521179,147.441589 282.297668,144.286469 
	C283.370056,139.928986 284.657501,135.623596 285.894684,131.307892 
	C286.386963,129.590790 286.481445,127.451141 288.703308,126.988335 
	C291.040741,126.501450 291.811401,128.601013 292.772827,130.051727 
	C304.546967,147.818146 316.273224,165.616333 328.010925,183.406921 
	C329.569366,185.769028 331.287750,188.044785 332.635132,190.522034 
	C334.239136,193.471069 333.413177,195.198288 329.776794,195.399673 
	C320.998291,195.885818 312.504913,195.729446 305.606995,188.954010 
	C300.619812,184.055389 295.206726,183.397842 289.180206,187.612747 
	C285.938049,189.880295 282.134338,191.344879 278.249542,193.336487 
z"/>
</svg>